<?xml version="1.0" encoding="utf-8" standalone="no"?>
<!DOCTYPE svg PUBLIC "-//W3C//DTD SVG 1.1//EN"
  "http://www.w3.org/Graphics/SVG/1.1/DTD/svg11.dtd">
<!-- Created with matplotlib (https://matplotlib.org/) -->
<svg height="360pt" version="1.1" viewBox="0 0 1440 360" width="1440pt" xmlns="http://www.w3.org/2000/svg" xmlns:xlink="http://www.w3.org/1999/xlink">
 <defs>
  <style type="text/css">
*{stroke-linecap:butt;stroke-linejoin:round;}
  </style>
 </defs>
 <g id="figure_1">
  <g id="patch_1">
   <path d="M 0 360 
L 1440 360 
L 1440 0 
L 0 0 
z
" style="fill:none;"/>
  </g>
  <g id="axes_1">
   <g id="patch_2">
    <path d="M 0 360 
L 1440 360 
L 1440 0 
L 0 0 
z
" style="fill:none;"/>
   </g>
   <g id="matplotlib.axis_1">
    <g id="xtick_1">
     <g id="line2d_1">
      <defs>
       <path d="M 0 0 
L 0 3.5 
" id="m9254b26f1d" style="stroke:#000000;stroke-width:0.8;"/>
      </defs>
      <g>
       <use style="stroke:#000000;stroke-width:0.8;" x="0" xlink:href="#m9254b26f1d" y="360"/>
      </g>
     </g>
     <g id="text_1">
      <!-- 0 -->
      <defs>
       <path d="M 31.78125 66.40625 
Q 24.171875 66.40625 20.328125 58.90625 
Q 16.5 51.421875 16.5 36.375 
Q 16.5 21.390625 20.328125 13.890625 
Q 24.171875 6.390625 31.78125 6.390625 
Q 39.453125 6.390625 43.28125 13.890625 
Q 47.125 21.390625 47.125 36.375 
Q 47.125 51.421875 43.28125 58.90625 
Q 39.453125 66.40625 31.78125 66.40625 
z
M 31.78125 74.21875 
Q 44.046875 74.21875 50.515625 64.515625 
Q 56.984375 54.828125 56.984375 36.375 
Q 56.984375 17.96875 50.515625 8.265625 
Q 44.046875 -1.421875 31.78125 -1.421875 
Q 19.53125 -1.421875 13.0625 8.265625 
Q 6.59375 17.96875 6.59375 36.375 
Q 6.59375 54.828125 13.0625 64.515625 
Q 19.53125 74.21875 31.78125 74.21875 
z
" id="DejaVuSans-48"/>
      </defs>
      <g transform="translate(-3.18125 374.598437)scale(0.1 -0.1)">
       <use xlink:href="#DejaVuSans-48"/>
      </g>
     </g>
    </g>
    <g id="xtick_2">
     <g id="line2d_2">
      <g>
       <use style="stroke:#000000;stroke-width:0.8;" x="207.492795" xlink:href="#m9254b26f1d" y="360"/>
      </g>
     </g>
     <g id="text_2">
      <!-- 50 -->
      <defs>
       <path d="M 10.796875 72.90625 
L 49.515625 72.90625 
L 49.515625 64.59375 
L 19.828125 64.59375 
L 19.828125 46.734375 
Q 21.96875 47.46875 24.109375 47.828125 
Q 26.265625 48.1875 28.421875 48.1875 
Q 40.625 48.1875 47.75 41.5 
Q 54.890625 34.8125 54.890625 23.390625 
Q 54.890625 11.625 47.5625 5.09375 
Q 40.234375 -1.421875 26.90625 -1.421875 
Q 22.3125 -1.421875 17.546875 -0.640625 
Q 12.796875 0.140625 7.71875 1.703125 
L 7.71875 11.625 
Q 12.109375 9.234375 16.796875 8.0625 
Q 21.484375 6.890625 26.703125 6.890625 
Q 35.15625 6.890625 40.078125 11.328125 
Q 45.015625 15.765625 45.015625 23.390625 
Q 45.015625 31 40.078125 35.4375 
Q 35.15625 39.890625 26.703125 39.890625 
Q 22.75 39.890625 18.8125 39.015625 
Q 14.890625 38.140625 10.796875 36.28125 
z
" id="DejaVuSans-53"/>
      </defs>
      <g transform="translate(201.130295 374.598437)scale(0.1 -0.1)">
       <use xlink:href="#DejaVuSans-53"/>
       <use x="63.623047" xlink:href="#DejaVuSans-48"/>
      </g>
     </g>
    </g>
    <g id="xtick_3">
     <g id="line2d_3">
      <g>
       <use style="stroke:#000000;stroke-width:0.8;" x="414.985591" xlink:href="#m9254b26f1d" y="360"/>
      </g>
     </g>
     <g id="text_3">
      <!-- 100 -->
      <defs>
       <path d="M 12.40625 8.296875 
L 28.515625 8.296875 
L 28.515625 63.921875 
L 10.984375 60.40625 
L 10.984375 69.390625 
L 28.421875 72.90625 
L 38.28125 72.90625 
L 38.28125 8.296875 
L 54.390625 8.296875 
L 54.390625 0 
L 12.40625 0 
z
" id="DejaVuSans-49"/>
      </defs>
      <g transform="translate(405.441841 374.598437)scale(0.1 -0.1)">
       <use xlink:href="#DejaVuSans-49"/>
       <use x="63.623047" xlink:href="#DejaVuSans-48"/>
       <use x="127.246094" xlink:href="#DejaVuSans-48"/>
      </g>
     </g>
    </g>
    <g id="xtick_4">
     <g id="line2d_4">
      <g>
       <use style="stroke:#000000;stroke-width:0.8;" x="622.478386" xlink:href="#m9254b26f1d" y="360"/>
      </g>
     </g>
     <g id="text_4">
      <!-- 150 -->
      <g transform="translate(612.934636 374.598437)scale(0.1 -0.1)">
       <use xlink:href="#DejaVuSans-49"/>
       <use x="63.623047" xlink:href="#DejaVuSans-53"/>
       <use x="127.246094" xlink:href="#DejaVuSans-48"/>
      </g>
     </g>
    </g>
    <g id="xtick_5">
     <g id="line2d_5">
      <g>
       <use style="stroke:#000000;stroke-width:0.8;" x="829.971182" xlink:href="#m9254b26f1d" y="360"/>
      </g>
     </g>
     <g id="text_5">
      <!-- 200 -->
      <defs>
       <path d="M 19.1875 8.296875 
L 53.609375 8.296875 
L 53.609375 0 
L 7.328125 0 
L 7.328125 8.296875 
Q 12.9375 14.109375 22.625 23.890625 
Q 32.328125 33.6875 34.8125 36.53125 
Q 39.546875 41.84375 41.421875 45.53125 
Q 43.3125 49.21875 43.3125 52.78125 
Q 43.3125 58.59375 39.234375 62.25 
Q 35.15625 65.921875 28.609375 65.921875 
Q 23.96875 65.921875 18.8125 64.3125 
Q 13.671875 62.703125 7.8125 59.421875 
L 7.8125 69.390625 
Q 13.765625 71.78125 18.9375 73 
Q 24.125 74.21875 28.421875 74.21875 
Q 39.75 74.21875 46.484375 68.546875 
Q 53.21875 62.890625 53.21875 53.421875 
Q 53.21875 48.921875 51.53125 44.890625 
Q 49.859375 40.875 45.40625 35.40625 
Q 44.1875 33.984375 37.640625 27.21875 
Q 31.109375 20.453125 19.1875 8.296875 
z
" id="DejaVuSans-50"/>
      </defs>
      <g transform="translate(820.427432 374.598437)scale(0.1 -0.1)">
       <use xlink:href="#DejaVuSans-50"/>
       <use x="63.623047" xlink:href="#DejaVuSans-48"/>
       <use x="127.246094" xlink:href="#DejaVuSans-48"/>
      </g>
     </g>
    </g>
    <g id="xtick_6">
     <g id="line2d_6">
      <g>
       <use style="stroke:#000000;stroke-width:0.8;" x="1037.463977" xlink:href="#m9254b26f1d" y="360"/>
      </g>
     </g>
     <g id="text_6">
      <!-- 250 -->
      <g transform="translate(1027.920227 374.598437)scale(0.1 -0.1)">
       <use xlink:href="#DejaVuSans-50"/>
       <use x="63.623047" xlink:href="#DejaVuSans-53"/>
       <use x="127.246094" xlink:href="#DejaVuSans-48"/>
      </g>
     </g>
    </g>
    <g id="xtick_7">
     <g id="line2d_7">
      <g>
       <use style="stroke:#000000;stroke-width:0.8;" x="1244.956772" xlink:href="#m9254b26f1d" y="360"/>
      </g>
     </g>
     <g id="text_7">
      <!-- 300 -->
      <defs>
       <path d="M 40.578125 39.3125 
Q 47.65625 37.796875 51.625 33 
Q 55.609375 28.21875 55.609375 21.1875 
Q 55.609375 10.40625 48.1875 4.484375 
Q 40.765625 -1.421875 27.09375 -1.421875 
Q 22.515625 -1.421875 17.65625 -0.515625 
Q 12.796875 0.390625 7.625 2.203125 
L 7.625 11.71875 
Q 11.71875 9.328125 16.59375 8.109375 
Q 21.484375 6.890625 26.8125 6.890625 
Q 36.078125 6.890625 40.9375 10.546875 
Q 45.796875 14.203125 45.796875 21.1875 
Q 45.796875 27.640625 41.28125 31.265625 
Q 36.765625 34.90625 28.71875 34.90625 
L 20.21875 34.90625 
L 20.21875 43.015625 
L 29.109375 43.015625 
Q 36.375 43.015625 40.234375 45.921875 
Q 44.09375 48.828125 44.09375 54.296875 
Q 44.09375 59.90625 40.109375 62.90625 
Q 36.140625 65.921875 28.71875 65.921875 
Q 24.65625 65.921875 20.015625 65.03125 
Q 15.375 64.15625 9.8125 62.3125 
L 9.8125 71.09375 
Q 15.4375 72.65625 20.34375 73.4375 
Q 25.25 74.21875 29.59375 74.21875 
Q 40.828125 74.21875 47.359375 69.109375 
Q 53.90625 64.015625 53.90625 55.328125 
Q 53.90625 49.265625 50.4375 45.09375 
Q 46.96875 40.921875 40.578125 39.3125 
z
" id="DejaVuSans-51"/>
      </defs>
      <g transform="translate(1235.413022 374.598437)scale(0.1 -0.1)">
       <use xlink:href="#DejaVuSans-51"/>
       <use x="63.623047" xlink:href="#DejaVuSans-48"/>
       <use x="127.246094" xlink:href="#DejaVuSans-48"/>
      </g>
     </g>
    </g>
   </g>
   <g id="matplotlib.axis_2">
    <g id="ytick_1">
     <g id="line2d_8">
      <defs>
       <path d="M 0 0 
L -3.5 0 
" id="m960ed67325" style="stroke:#000000;stroke-width:0.8;"/>
      </defs>
      <g>
       <use style="stroke:#000000;stroke-width:0.8;" x="720" xlink:href="#m960ed67325" y="343.636364"/>
      </g>
     </g>
     <g id="text_8">
      <!-- 0 -->
      <g transform="translate(706.6375 347.435582)scale(0.1 -0.1)">
       <use xlink:href="#DejaVuSans-48"/>
      </g>
     </g>
    </g>
    <g id="ytick_2">
     <g id="line2d_9">
      <g>
       <use style="stroke:#000000;stroke-width:0.8;" x="720" xlink:href="#m960ed67325" y="302.960562"/>
      </g>
     </g>
     <g id="text_9">
      <!-- 100 -->
      <g transform="translate(693.9125 306.75978)scale(0.1 -0.1)">
       <use xlink:href="#DejaVuSans-49"/>
       <use x="63.623047" xlink:href="#DejaVuSans-48"/>
       <use x="127.246094" xlink:href="#DejaVuSans-48"/>
      </g>
     </g>
    </g>
    <g id="ytick_3">
     <g id="line2d_10">
      <g>
       <use style="stroke:#000000;stroke-width:0.8;" x="720" xlink:href="#m960ed67325" y="262.284759"/>
      </g>
     </g>
     <g id="text_10">
      <!-- 200 -->
      <g transform="translate(693.9125 266.083978)scale(0.1 -0.1)">
       <use xlink:href="#DejaVuSans-50"/>
       <use x="63.623047" xlink:href="#DejaVuSans-48"/>
       <use x="127.246094" xlink:href="#DejaVuSans-48"/>
      </g>
     </g>
    </g>
    <g id="ytick_4">
     <g id="line2d_11">
      <g>
       <use style="stroke:#000000;stroke-width:0.8;" x="720" xlink:href="#m960ed67325" y="221.608957"/>
      </g>
     </g>
     <g id="text_11">
      <!-- 300 -->
      <g transform="translate(693.9125 225.408176)scale(0.1 -0.1)">
       <use xlink:href="#DejaVuSans-51"/>
       <use x="63.623047" xlink:href="#DejaVuSans-48"/>
       <use x="127.246094" xlink:href="#DejaVuSans-48"/>
      </g>
     </g>
    </g>
    <g id="ytick_5">
     <g id="line2d_12">
      <g>
       <use style="stroke:#000000;stroke-width:0.8;" x="720" xlink:href="#m960ed67325" y="180.933155"/>
      </g>
     </g>
     <g id="text_12">
      <!-- 400 -->
      <defs>
       <path d="M 37.796875 64.3125 
L 12.890625 25.390625 
L 37.796875 25.390625 
z
M 35.203125 72.90625 
L 47.609375 72.90625 
L 47.609375 25.390625 
L 58.015625 25.390625 
L 58.015625 17.1875 
L 47.609375 17.1875 
L 47.609375 0 
L 37.796875 0 
L 37.796875 17.1875 
L 4.890625 17.1875 
L 4.890625 26.703125 
z
" id="DejaVuSans-52"/>
      </defs>
      <g transform="translate(693.9125 184.732374)scale(0.1 -0.1)">
       <use xlink:href="#DejaVuSans-52"/>
       <use x="63.623047" xlink:href="#DejaVuSans-48"/>
       <use x="127.246094" xlink:href="#DejaVuSans-48"/>
      </g>
     </g>
    </g>
    <g id="ytick_6">
     <g id="line2d_13">
      <g>
       <use style="stroke:#000000;stroke-width:0.8;" x="720" xlink:href="#m960ed67325" y="140.257353"/>
      </g>
     </g>
     <g id="text_13">
      <!-- 500 -->
      <g transform="translate(693.9125 144.056572)scale(0.1 -0.1)">
       <use xlink:href="#DejaVuSans-53"/>
       <use x="63.623047" xlink:href="#DejaVuSans-48"/>
       <use x="127.246094" xlink:href="#DejaVuSans-48"/>
      </g>
     </g>
    </g>
    <g id="ytick_7">
     <g id="line2d_14">
      <g>
       <use style="stroke:#000000;stroke-width:0.8;" x="720" xlink:href="#m960ed67325" y="99.581551"/>
      </g>
     </g>
     <g id="text_14">
      <!-- 600 -->
      <defs>
       <path d="M 33.015625 40.375 
Q 26.375 40.375 22.484375 35.828125 
Q 18.609375 31.296875 18.609375 23.390625 
Q 18.609375 15.53125 22.484375 10.953125 
Q 26.375 6.390625 33.015625 6.390625 
Q 39.65625 6.390625 43.53125 10.953125 
Q 47.40625 15.53125 47.40625 23.390625 
Q 47.40625 31.296875 43.53125 35.828125 
Q 39.65625 40.375 33.015625 40.375 
z
M 52.59375 71.296875 
L 52.59375 62.3125 
Q 48.875 64.0625 45.09375 64.984375 
Q 41.3125 65.921875 37.59375 65.921875 
Q 27.828125 65.921875 22.671875 59.328125 
Q 17.53125 52.734375 16.796875 39.40625 
Q 19.671875 43.65625 24.015625 45.921875 
Q 28.375 48.1875 33.59375 48.1875 
Q 44.578125 48.1875 50.953125 41.515625 
Q 57.328125 34.859375 57.328125 23.390625 
Q 57.328125 12.15625 50.6875 5.359375 
Q 44.046875 -1.421875 33.015625 -1.421875 
Q 20.359375 -1.421875 13.671875 8.265625 
Q 6.984375 17.96875 6.984375 36.375 
Q 6.984375 53.65625 15.1875 63.9375 
Q 23.390625 74.21875 37.203125 74.21875 
Q 40.921875 74.21875 44.703125 73.484375 
Q 48.484375 72.75 52.59375 71.296875 
z
" id="DejaVuSans-54"/>
      </defs>
      <g transform="translate(693.9125 103.38077)scale(0.1 -0.1)">
       <use xlink:href="#DejaVuSans-54"/>
       <use x="63.623047" xlink:href="#DejaVuSans-48"/>
       <use x="127.246094" xlink:href="#DejaVuSans-48"/>
      </g>
     </g>
    </g>
    <g id="ytick_8">
     <g id="line2d_15">
      <g>
       <use style="stroke:#000000;stroke-width:0.8;" x="720" xlink:href="#m960ed67325" y="58.905749"/>
      </g>
     </g>
     <g id="text_15">
      <!-- 700 -->
      <defs>
       <path d="M 8.203125 72.90625 
L 55.078125 72.90625 
L 55.078125 68.703125 
L 28.609375 0 
L 18.3125 0 
L 43.21875 64.59375 
L 8.203125 64.59375 
z
" id="DejaVuSans-55"/>
      </defs>
      <g transform="translate(693.9125 62.704968)scale(0.1 -0.1)">
       <use xlink:href="#DejaVuSans-55"/>
       <use x="63.623047" xlink:href="#DejaVuSans-48"/>
       <use x="127.246094" xlink:href="#DejaVuSans-48"/>
      </g>
     </g>
    </g>
    <g id="ytick_9">
     <g id="line2d_16">
      <g>
       <use style="stroke:#000000;stroke-width:0.8;" x="720" xlink:href="#m960ed67325" y="18.229947"/>
      </g>
     </g>
     <g id="text_16">
      <!-- 800 -->
      <defs>
       <path d="M 31.78125 34.625 
Q 24.75 34.625 20.71875 30.859375 
Q 16.703125 27.09375 16.703125 20.515625 
Q 16.703125 13.921875 20.71875 10.15625 
Q 24.75 6.390625 31.78125 6.390625 
Q 38.8125 6.390625 42.859375 10.171875 
Q 46.921875 13.96875 46.921875 20.515625 
Q 46.921875 27.09375 42.890625 30.859375 
Q 38.875 34.625 31.78125 34.625 
z
M 21.921875 38.8125 
Q 15.578125 40.375 12.03125 44.71875 
Q 8.5 49.078125 8.5 55.328125 
Q 8.5 64.0625 14.71875 69.140625 
Q 20.953125 74.21875 31.78125 74.21875 
Q 42.671875 74.21875 48.875 69.140625 
Q 55.078125 64.0625 55.078125 55.328125 
Q 55.078125 49.078125 51.53125 44.71875 
Q 48 40.375 41.703125 38.8125 
Q 48.828125 37.15625 52.796875 32.3125 
Q 56.78125 27.484375 56.78125 20.515625 
Q 56.78125 9.90625 50.3125 4.234375 
Q 43.84375 -1.421875 31.78125 -1.421875 
Q 19.734375 -1.421875 13.25 4.234375 
Q 6.78125 9.90625 6.78125 20.515625 
Q 6.78125 27.484375 10.78125 32.3125 
Q 14.796875 37.15625 21.921875 38.8125 
z
M 18.3125 54.390625 
Q 18.3125 48.734375 21.84375 45.5625 
Q 25.390625 42.390625 31.78125 42.390625 
Q 38.140625 42.390625 41.71875 45.5625 
Q 45.3125 48.734375 45.3125 54.390625 
Q 45.3125 60.0625 41.71875 63.234375 
Q 38.140625 66.40625 31.78125 66.40625 
Q 25.390625 66.40625 21.84375 63.234375 
Q 18.3125 60.0625 18.3125 54.390625 
z
" id="DejaVuSans-56"/>
      </defs>
      <g transform="translate(693.9125 22.029165)scale(0.1 -0.1)">
       <use xlink:href="#DejaVuSans-56"/>
       <use x="63.623047" xlink:href="#DejaVuSans-48"/>
       <use x="127.246094" xlink:href="#DejaVuSans-48"/>
      </g>
     </g>
    </g>
   </g>
   <g id="line2d_17">
    <path clip-path="url(#p99149007e5)" d="M 0 322.194146 
L 4.149856 335.687426 
L 8.299712 343.626588 
L 12.449568 336.942509 
L 16.599424 297.347008 
L 20.74928 343.408591 
L 24.899135 277.998302 
L 29.048991 225.769165 
L 33.198847 341.011689 
L 37.348703 332.22976 
L 41.498559 126.880267 
L 45.648415 258.452336 
L 49.798271 319.317961 
L 53.948127 263.061036 
L 58.097983 343.494078 
L 62.247839 320.378111 
L 66.397695 325.195123 
L 70.54755 325.783571 
L 74.697406 272.496474 
L 78.847262 334.679614 
L 82.997118 343.519242 
L 87.146974 207.524526 
L 91.29683 146.645942 
L 95.446686 294.766655 
L 99.596542 276.444762 
L 103.746398 331.679409 
L 107.896254 343.616657 
L 112.04611 340.5865 
L 116.195965 330.073656 
L 120.345821 327.691657 
L 124.495677 342.430253 
L 128.645533 291.035487 
L 132.795389 341.534854 
L 136.945245 279.07496 
L 141.095101 265.89537 
L 145.244957 329.472576 
L 149.394813 328.889734 
L 153.544669 314.360645 
L 157.694524 343.503376 
L 161.84438 338.75548 
L 165.994236 341.782722 
L 170.144092 308.930736 
L 174.293948 341.121335 
L 178.443804 340.40339 
L 182.59366 343.389266 
L 186.743516 342.546428 
L 190.893372 343.636364 
L 195.043228 343.583601 
L 199.193084 336.07823 
L 203.342939 194.467418 
L 207.492795 343.350958 
L 211.642651 305.286619 
L 215.792507 319.270434 
L 219.942363 337.217733 
L 224.092219 332.711976 
L 228.242075 333.172406 
L 232.391931 343.605679 
L 236.541787 343.097733 
L 240.691643 341.995607 
L 244.841499 342.084526 
L 248.991354 339.888702 
L 253.14121 304.727553 
L 257.291066 343.11686 
L 261.440922 342.076258 
L 265.590778 342.720702 
L 269.740634 332.310924 
L 273.89049 342.853581 
L 278.040346 331.079943 
L 282.190202 343.301907 
L 286.340058 289.562286 
L 290.489914 294.899065 
L 294.639769 274.506672 
L 298.789625 276.014481 
L 302.939481 314.692948 
L 307.089337 343.336818 
L 311.239193 339.5531 
L 315.389049 310.570079 
L 319.538905 329.19316 
L 323.688761 309.641051 
L 327.838617 316.862002 
L 331.988473 343.404092 
L 336.138329 330.922736 
L 340.288184 343.183256 
L 344.43804 302.38129 
L 348.587896 330.008845 
L 352.737752 343.028823 
L 356.887608 343.083171 
L 361.037464 331.599823 
L 365.18732 261.071033 
L 369.337176 293.91872 
L 373.487032 255.488376 
L 377.636888 340.718138 
L 381.786744 343.573186 
L 385.936599 284.755707 
L 390.086455 333.305404 
L 394.236311 266.873318 
L 398.386167 291.288308 
L 402.536023 109.165216 
L 406.685879 343.493895 
L 410.835735 331.369823 
L 414.985591 305.33922 
L 419.135447 315.38424 
L 423.285303 258.33176 
L 427.435159 294.822692 
L 431.585014 343.57065 
L 435.73487 310.671151 
L 439.884726 314.841783 
L 444.034582 306.162322 
L 448.184438 293.83584 
L 452.334294 297.49404 
L 456.48415 343.468424 
L 460.634006 307.899994 
L 464.783862 306.992153 
L 468.933718 342.905098 
L 473.083573 330.14228 
L 477.233429 294.194317 
L 481.383285 343.545631 
L 485.533141 294.791137 
L 489.682997 298.424036 
L 493.832853 281.55471 
L 497.982709 308.663779 
L 502.132565 302.812816 
L 506.282421 343.614832 
L 510.432277 263.99411 
L 514.582133 324.651225 
L 518.731988 249.921466 
L 522.881844 128.59809 
L 527.0317 332.043667 
L 531.181556 343.636364 
L 535.331412 273.979946 
L 539.481268 254.904636 
L 543.631124 231.66198 
L 547.78098 342.739999 
L 551.930836 191.349614 
L 556.080692 342.902486 
L 560.230548 252.54748 
L 564.380403 209.036388 
L 568.530259 253.595694 
L 572.680115 278.046639 
L 576.829971 263.903624 
L 580.979827 343.435308 
L 585.129683 287.490201 
L 589.279539 341.239988 
L 593.429395 306.74201 
L 597.579251 278.578274 
L 601.729107 311.524281 
L 605.878963 343.407214 
L 610.028818 341.845765 
L 614.178674 335.988731 
L 618.32853 294.960597 
L 622.478386 334.447172 
L 626.628242 300.064207 
L 630.778098 343.601303 
L 634.927954 319.158007 
L 639.07781 343.349777 
L 643.227666 299.957084 
L 647.377522 338.095092 
L 651.527378 320.258994 
L 655.677233 343.590076 
L 659.827089 321.990172 
L 663.976945 342.547536 
L 668.126801 310.037664 
L 672.276657 325.69683 
L 676.426513 306.929826 
L 680.576369 341.869385 
L 684.726225 273.018061 
L 688.876081 341.175515 
L 693.025937 297.602296 
L 697.175793 284.316743 
L 701.325648 268.178456 
L 705.475504 343.629616 
L 709.62536 321.9144 
L 713.775216 314.226643 
L 717.925072 312.037979 
L 722.074928 301.261092 
L 726.224784 280.869938 
L 730.37464 343.592763 
L 734.524496 287.22043 
L 738.674352 307.407162 
L 742.824207 231.346658 
L 746.974063 325.691958 
L 751.123919 281.617856 
L 755.273775 343.482105 
L 759.423631 251.022386 
L 763.573487 148.446064 
L 767.723343 16.363636 
L 771.873199 291.358753 
L 776.023055 260.893865 
L 780.172911 343.629962 
L 784.322767 335.885357 
L 788.472622 307.590888 
L 792.622478 320.194168 
L 796.772334 325.895219 
L 800.92219 309.994103 
L 805.072046 343.635042 
L 809.221902 322.981631 
L 813.371758 327.419913 
L 817.521614 318.001067 
L 821.67147 332.105141 
L 825.821326 338.965571 
L 829.971182 343.580689 
L 834.121037 336.797666 
L 838.270893 333.505415 
L 842.420749 314.490329 
L 846.570605 334.029072 
L 850.720461 323.559888 
L 854.870317 342.026046 
L 859.020173 327.395558 
L 863.170029 341.034146 
L 867.319885 332.858919 
L 871.469741 338.073463 
L 875.619597 334.957181 
L 879.769452 343.635799 
L 883.919308 277.614949 
L 888.069164 339.485774 
L 892.21902 332.130099 
L 896.368876 262.964392 
L 900.518732 325.432324 
L 904.668588 343.587189 
L 908.818444 262.720384 
L 912.9683 303.008393 
L 917.118156 307.90549 
L 921.268012 299.721322 
L 925.417867 300.696375 
L 929.567723 343.454007 
L 933.717579 300.678019 
L 937.867435 337.099964 
L 942.017291 330.428971 
L 946.167147 329.716494 
L 950.317003 334.991073 
L 954.466859 343.573371 
L 958.616715 331.101852 
L 962.766571 337.62637 
L 966.916427 336.77498 
L 971.066282 336.346639 
L 975.216138 337.513838 
L 979.365994 343.631697 
L 983.51585 325.54593 
L 987.665706 333.872675 
L 991.815562 337.014188 
L 995.965418 335.456918 
L 1000.115274 342.582758 
L 1004.26513 343.635238 
L 1008.414986 338.466486 
L 1012.564841 330.126414 
L 1016.714697 334.406168 
L 1020.864553 337.682613 
L 1025.014409 311.883515 
L 1029.164265 343.531531 
L 1033.314121 314.787183 
L 1037.463977 332.337656 
L 1041.613833 320.719373 
L 1045.763689 323.163768 
L 1049.913545 312.201071 
L 1054.063401 343.571836 
L 1058.213256 314.437092 
L 1062.363112 299.0388 
L 1066.512968 320.379946 
L 1070.662824 316.732721 
L 1074.81268 305.109208 
L 1078.962536 343.491212 
L 1083.112392 294.013449 
L 1087.262248 283.17034 
L 1091.412104 315.354386 
L 1095.56196 329.835422 
L 1099.711816 307.810981 
L 1103.861671 343.418536 
L 1108.011527 279.023514 
L 1112.161383 303.275433 
L 1116.311239 289.607402 
L 1120.461095 315.582467 
L 1124.610951 314.903098 
L 1128.760807 343.631521 
L 1132.910663 329.82951 
L 1137.060519 320.924302 
L 1141.210375 331.465554 
L 1145.360231 328.567466 
L 1149.510086 317.283603 
L 1153.659942 343.632942 
L 1157.809798 334.942345 
L 1161.959654 334.068737 
L 1166.10951 330.730971 
L 1170.259366 321.181108 
L 1174.409222 324.957957 
L 1178.559078 343.615078 
L 1182.708934 327.095994 
L 1186.85879 282.992563 
L 1191.008646 318.117007 
L 1195.158501 319.768377 
L 1199.308357 306.146961 
L 1203.458213 343.633368 
L 1207.608069 328.790048 
L 1211.757925 327.697742 
L 1215.907781 331.189034 
L 1224.207493 336.056367 
L 1228.357349 343.328166 
L 1232.507205 325.466426 
L 1236.657061 332.038678 
L 1240.806916 319.057851 
L 1244.956772 326.861651 
L 1249.106628 331.998596 
L 1253.256484 343.630928 
L 1257.40634 332.470354 
L 1261.556196 334.746345 
L 1265.706052 337.327953 
L 1269.855908 338.658785 
L 1274.005764 339.605943 
L 1278.15562 343.621699 
L 1282.305476 339.594857 
L 1286.455331 339.547988 
L 1290.605187 328.612397 
L 1294.755043 340.124553 
L 1298.904899 341.141888 
L 1303.054755 343.635861 
L 1307.204611 338.655836 
L 1311.354467 319.610899 
L 1315.504323 291.903044 
L 1319.654179 233.09539 
L 1323.804035 294.431354 
L 1327.95389 343.635195 
L 1332.103746 334.846108 
L 1336.253602 332.398638 
L 1340.403458 317.390323 
L 1344.553314 334.417271 
L 1348.70317 334.292326 
L 1352.853026 343.600399 
L 1357.002882 332.731052 
L 1361.152738 333.367762 
L 1365.302594 339.444126 
L 1369.45245 343.350023 
L 1373.602305 337.714049 
L 1377.752161 343.594852 
L 1381.902017 329.810545 
L 1386.051873 336.799117 
L 1390.201729 301.044266 
L 1394.351585 307.705881 
L 1398.501441 336.468774 
L 1402.651297 343.251578 
L 1406.801153 337.872444 
L 1410.951009 320.238087 
L 1415.100865 334.57728 
L 1419.25072 330.174486 
L 1423.400576 326.665039 
L 1427.550432 343.592411 
L 1431.700288 336.887888 
L 1435.850144 336.123469 
L 1440 337.023839 
L 1440 337.023839 
" style="fill:none;stroke:#1f77b4;stroke-linecap:square;stroke-width:1.5;"/>
   </g>
   <g id="line2d_18">
    <path clip-path="url(#p99149007e5)" d="M 0 339.438552 
L 4.149856 341.078691 
L 8.299712 343.626655 
L 12.449568 342.782463 
L 16.599424 336.704738 
L 20.74928 343.417654 
L 24.899135 333.458687 
L 29.048991 318.287547 
L 33.198847 343.578809 
L 37.348703 335.155367 
L 41.498559 311.793459 
L 45.648415 324.985294 
L 49.798271 337.008454 
L 53.948127 312.751627 
L 58.097983 343.521275 
L 62.247839 329.363243 
L 66.397695 333.916175 
L 70.54755 342.242747 
L 74.697406 328.367896 
L 78.847262 342.752337 
L 82.997118 343.520153 
L 87.146974 255.646112 
L 91.29683 159.721571 
L 95.446686 295.535003 
L 99.596542 280.34773 
L 103.746398 337.080076 
L 107.896254 343.616735 
L 112.04611 340.627021 
L 116.195965 331.134509 
L 120.345821 341.9743 
L 124.495677 342.439034 
L 128.645533 335.29196 
L 132.795389 343.50412 
L 136.945245 338.548196 
L 141.095101 336.670539 
L 145.244957 336.459883 
L 149.394813 340.405309 
L 153.544669 317.134405 
L 157.694524 343.508361 
L 161.84438 339.290562 
L 165.994236 341.799542 
L 170.144092 325.267091 
L 174.293948 341.196707 
L 178.443804 340.411599 
L 182.59366 343.391905 
L 186.743516 343.222744 
L 190.893372 343.636364 
L 195.043228 343.583601 
L 199.193084 336.095317 
L 203.342939 221.449472 
L 207.492795 343.351396 
L 211.642651 330.872742 
L 215.792507 329.963537 
L 219.942363 337.512492 
L 224.092219 335.791612 
L 228.242075 342.87843 
L 232.391931 343.605829 
L 236.541787 343.103438 
L 240.691643 342.002224 
L 244.841499 342.17316 
L 248.991354 340.426708 
L 253.14121 308.810278 
L 257.291066 343.146327 
L 261.440922 342.078744 
L 265.590778 342.72239 
L 269.740634 335.20286 
L 273.89049 342.855745 
L 278.040346 332.062571 
L 282.190202 343.398889 
L 286.340058 335.860467 
L 290.489914 338.091327 
L 294.639769 341.507889 
L 302.939481 335.338199 
L 307.089337 343.391794 
L 311.239193 340.995463 
L 315.389049 329.896679 
L 319.538905 336.467139 
L 323.688761 329.603502 
L 327.838617 329.38806 
L 331.988473 343.406359 
L 336.138329 339.25774 
L 340.288184 343.26286 
L 344.43804 337.812051 
L 348.587896 342.592674 
L 356.887608 343.375881 
L 361.037464 335.378489 
L 365.18732 309.38859 
L 369.337176 327.586037 
L 373.487032 317.138229 
L 377.636888 342.052344 
L 381.786744 343.573357 
L 385.936599 319.624276 
L 390.086455 338.188696 
L 394.236311 323.436487 
L 398.386167 329.104731 
L 402.536023 333.997978 
L 406.685879 343.494347 
L 410.835735 336.039744 
L 414.985591 323.086706 
L 419.135447 330.383986 
L 423.285303 330.746601 
L 427.435159 328.298043 
L 431.585014 343.570761 
L 435.73487 321.604973 
L 439.884726 318.616567 
L 448.184438 308.617397 
L 452.334294 310.493765 
L 456.48415 343.473336 
L 460.634006 313.345999 
L 464.783862 314.126211 
L 468.933718 343.064364 
L 477.233429 329.368972 
L 481.383285 343.54567 
L 485.533141 332.299217 
L 489.682997 332.414641 
L 493.832853 333.249002 
L 497.982709 333.246227 
L 502.132565 337.506274 
L 506.282421 343.614904 
L 510.432277 323.400701 
L 514.582133 337.906767 
L 518.731988 328.390806 
L 522.881844 326.917221 
L 527.0317 341.547861 
L 531.181556 343.636364 
L 535.331412 327.617183 
L 539.481268 330.741755 
L 543.631124 319.29446 
L 547.78098 342.741204 
L 551.930836 311.310341 
L 556.080692 343.567123 
L 560.230548 317.248567 
L 564.380403 310.475269 
L 568.530259 314.79789 
L 572.680115 311.229422 
L 576.829971 315.126897 
L 580.979827 343.52464 
L 585.129683 310.005306 
L 589.279539 342.007917 
L 593.429395 317.406923 
L 597.579251 288.747126 
L 601.729107 313.517135 
L 605.878963 343.407214 
L 610.028818 341.917709 
L 614.178674 337.396168 
L 618.32853 312.325989 
L 622.478386 335.601529 
L 626.628242 317.249178 
L 630.778098 343.601363 
L 634.927954 328.783542 
L 639.07781 343.352225 
L 643.227666 339.277524 
L 647.377522 340.055282 
L 651.527378 330.860853 
L 655.677233 343.590076 
L 659.827089 334.850224 
L 663.976945 342.654016 
L 668.126801 329.598844 
L 672.276657 331.510545 
L 676.426513 330.814351 
L 680.576369 343.490958 
L 684.726225 327.830026 
L 688.876081 342.398208 
L 693.025937 322.723675 
L 697.175793 309.360033 
L 701.325648 295.283708 
L 705.475504 343.629648 
L 709.62536 326.865771 
L 713.775216 326.9745 
L 717.925072 321.00398 
L 722.074928 317.84509 
L 726.224784 316.280717 
L 730.37464 343.597616 
L 734.524496 298.854159 
L 738.674352 320.162573 
L 742.824207 318.320177 
L 746.974063 338.370162 
L 751.123919 313.700495 
L 755.273775 343.4878 
L 759.423631 336.518745 
L 763.573487 331.488963 
L 767.723343 328.108581 
L 771.873199 336.759843 
L 776.023055 334.639509 
L 780.172911 343.629992 
L 784.322767 339.572704 
L 788.472622 337.677682 
L 792.622478 341.584176 
L 796.772334 335.62847 
L 800.92219 336.495934 
L 805.072046 343.635042 
L 809.221902 339.978635 
L 813.371758 338.226033 
L 817.521614 339.107674 
L 821.67147 339.551839 
L 825.821326 341.271934 
L 829.971182 343.594426 
L 834.121037 342.056537 
L 842.420749 338.654693 
L 846.570605 342.129636 
L 850.720461 339.161179 
L 854.870317 343.623368 
L 859.020173 337.843302 
L 863.170029 341.721109 
L 867.319885 337.465508 
L 871.469741 340.585331 
L 875.619597 340.544627 
L 879.769452 343.635799 
L 883.919308 337.146457 
L 888.069164 343.410472 
L 892.21902 340.764746 
L 896.368876 338.84371 
L 900.518732 340.387632 
L 904.668588 343.601737 
L 908.818444 265.869662 
L 912.9683 306.496525 
L 917.118156 314.379631 
L 921.268012 311.550988 
L 925.417867 307.281282 
L 929.567723 343.45466 
L 933.717579 322.606427 
L 937.867435 340.217746 
L 942.017291 339.92787 
L 946.167147 339.917715 
L 950.317003 340.148099 
L 954.466859 343.590797 
L 958.616715 340.374245 
L 962.766571 340.298686 
L 966.916427 340.826101 
L 971.066282 340.309648 
L 975.216138 340.8874 
L 979.365994 343.631727 
L 983.51585 340.342792 
L 987.665706 340.240564 
L 991.815562 340.54543 
L 995.965418 340.403151 
L 1000.115274 343.038816 
L 1004.26513 343.635238 
L 1008.414986 340.669411 
L 1012.564841 340.2985 
L 1016.714697 340.371257 
L 1020.864553 339.656081 
L 1025.014409 335.832143 
L 1029.164265 343.531631 
L 1033.314121 320.09724 
L 1037.463977 334.266574 
L 1041.613833 323.113286 
L 1045.763689 327.975921 
L 1049.913545 323.576389 
L 1054.063401 343.576312 
L 1058.213256 319.8599 
L 1062.363112 313.838052 
L 1066.512968 329.490515 
L 1070.662824 324.289448 
L 1074.81268 325.968898 
L 1078.962536 343.518459 
L 1083.112392 315.509822 
L 1087.262248 308.855949 
L 1091.412104 326.986746 
L 1095.56196 336.503124 
L 1099.711816 317.407271 
L 1103.861671 343.418536 
L 1108.011527 295.406755 
L 1112.161383 324.77133 
L 1116.311239 313.314169 
L 1120.461095 322.024335 
L 1124.610951 327.642001 
L 1128.760807 343.631563 
L 1132.910663 340.569396 
L 1137.060519 338.983198 
L 1141.210375 340.30297 
L 1145.360231 339.812591 
L 1149.510086 339.893306 
L 1153.659942 343.632971 
L 1157.809798 340.248077 
L 1161.959654 340.588707 
L 1166.10951 339.342346 
L 1170.259366 340.424208 
L 1174.409222 340.68182 
L 1178.559078 343.618385 
L 1182.708934 338.117529 
L 1186.85879 336.307513 
L 1191.008646 339.258488 
L 1195.158501 339.864096 
L 1199.308357 337.522241 
L 1203.458213 343.633399 
L 1207.608069 338.484788 
L 1215.907781 340.550752 
L 1220.057637 340.676389 
L 1224.207493 340.612498 
L 1228.357349 343.560384 
L 1232.507205 337.996561 
L 1236.657061 340.544516 
L 1240.806916 340.782135 
L 1244.956772 333.226867 
L 1249.106628 332.372629 
L 1253.256484 343.630975 
L 1257.40634 340.411724 
L 1261.556196 339.199523 
L 1265.706052 339.9628 
L 1269.855908 340.270232 
L 1274.005764 340.964739 
L 1278.15562 343.622155 
L 1282.305476 341.364494 
L 1286.455331 341.648164 
L 1290.605187 340.895175 
L 1294.755043 341.251318 
L 1298.904899 342.012539 
L 1303.054755 343.635861 
L 1307.204611 341.177569 
L 1311.354467 341.733657 
L 1315.504323 339.470261 
L 1319.654179 338.545247 
L 1323.804035 338.779606 
L 1327.95389 343.635195 
L 1332.103746 340.182769 
L 1336.253602 340.753618 
L 1340.403458 340.368239 
L 1344.553314 341.17158 
L 1348.70317 341.032876 
L 1352.853026 343.612599 
L 1357.002882 338.801037 
L 1361.152738 340.621585 
L 1365.302594 341.155248 
L 1369.45245 343.389688 
L 1373.602305 341.152058 
L 1377.752161 343.608533 
L 1381.902017 339.607296 
L 1386.051873 339.333617 
L 1390.201729 335.773943 
L 1394.351585 340.448284 
L 1398.501441 337.193971 
L 1402.651297 343.270384 
L 1406.801153 340.223554 
L 1410.951009 329.174225 
L 1415.100865 341.661738 
L 1419.25072 332.518929 
L 1423.400576 330.765691 
L 1427.550432 343.592447 
L 1431.700288 337.949806 
L 1435.850144 339.389146 
L 1440 340.113929 
L 1440 340.113929 
" style="fill:none;stroke:#ff7f0e;stroke-linecap:square;stroke-width:1.5;"/>
   </g>
   <g id="line2d_19">
    <path clip-path="url(#p99149007e5)" d="M 0 341.47693 
L 4.149856 342.704941 
L 8.299712 343.629406 
L 12.449568 343.148499 
L 16.599424 340.606885 
L 20.74928 343.476146 
L 24.899135 338.110119 
L 29.048991 328.587619 
L 33.198847 343.621758 
L 37.348703 337.512771 
L 41.498559 324.122615 
L 45.648415 330.097325 
L 49.798271 338.533808 
L 53.948127 321.558052 
L 58.097983 343.582471 
L 62.247839 331.852102 
L 66.397695 335.650072 
L 70.54755 342.971465 
L 74.697406 333.148658 
L 78.847262 343.033236 
L 82.997118 343.556521 
L 87.146974 290.541147 
L 91.29683 234.395196 
L 95.446686 314.778171 
L 99.596542 305.343447 
L 103.746398 338.622109 
L 107.896254 343.620442 
L 112.04611 341.841079 
L 116.195965 336.27407 
L 120.345821 342.660239 
L 124.495677 342.794425 
L 128.645533 338.549656 
L 132.795389 343.515742 
L 136.945245 341.96892 
L 141.095101 340.166743 
L 145.244957 339.252628 
L 149.394813 341.318373 
L 153.544669 327.35085 
L 157.694524 343.539961 
L 161.84438 339.879694 
L 165.994236 341.999171 
L 170.144092 327.890449 
L 174.293948 341.480321 
L 178.443804 340.761545 
L 182.59366 343.469782 
L 186.743516 343.422062 
L 190.893372 343.636364 
L 195.043228 343.586831 
L 199.193084 337.056335 
L 203.342939 262.816736 
L 207.492795 343.382887 
L 211.642651 333.221907 
L 215.792507 331.368689 
L 219.942363 338.318399 
L 224.092219 337.169105 
L 228.242075 343.248816 
L 232.391931 343.61253 
L 236.541787 343.219414 
L 240.691643 342.216274 
L 244.841499 342.554315 
L 248.991354 341.659383 
L 253.14121 321.125849 
L 257.291066 343.284473 
L 261.440922 342.212844 
L 265.590778 342.832552 
L 269.740634 336.780492 
L 273.89049 342.973027 
L 278.040346 334.59169 
L 282.190202 343.480423 
L 286.340058 340.931626 
L 290.489914 341.936791 
L 294.639769 343.122976 
L 298.789625 342.31509 
L 302.939481 338.252424 
L 307.089337 343.465554 
L 311.239193 341.46469 
L 315.389049 332.411083 
L 319.538905 337.954444 
L 323.688761 332.609993 
L 327.838617 332.585589 
L 331.988473 343.44829 
L 336.138329 340.385366 
L 340.288184 343.444225 
L 344.43804 340.056918 
L 348.587896 342.836913 
L 352.737752 343.09109 
L 356.887608 343.475227 
L 361.037464 337.855332 
L 365.18732 319.759866 
L 369.337176 332.515952 
L 373.487032 326.970925 
L 377.636888 342.796044 
L 381.786744 343.582709 
L 385.936599 325.492969 
L 390.086455 339.34534 
L 394.236311 331.081941 
L 398.386167 333.44239 
L 402.536023 341.300683 
L 406.685879 343.517576 
L 410.835735 338.084698 
L 414.985591 327.275873 
L 419.135447 334.627737 
L 423.285303 337.125615 
L 427.435159 332.857379 
L 431.585014 343.578357 
L 435.73487 325.276028 
L 439.884726 322.254544 
L 444.034582 317.84776 
L 448.184438 315.069923 
L 452.334294 315.951622 
L 456.48415 343.504263 
L 460.634006 317.420637 
L 464.783862 318.629937 
L 468.933718 343.30655 
L 473.083573 337.750165 
L 477.233429 333.013289 
L 481.383285 343.55245 
L 485.533141 335.825087 
L 493.832853 337.507827 
L 497.982709 336.991286 
L 502.132565 342.146196 
L 506.282421 343.618514 
L 510.432277 333.072563 
L 514.582133 340.80691 
L 518.731988 336.528285 
L 522.881844 337.71584 
L 527.0317 343.309307 
L 531.181556 343.636364 
L 535.331412 334.185785 
L 539.481268 335.393045 
L 543.631124 328.099233 
L 547.78098 342.834721 
L 551.930836 322.071307 
L 556.080692 343.618158 
L 560.230548 326.932759 
L 564.380403 322.879718 
L 568.530259 323.620908 
L 572.680115 320.155724 
L 576.829971 322.330223 
L 580.979827 343.595152 
L 585.129683 318.302413 
L 589.279539 342.532921 
L 593.429395 323.680219 
L 597.579251 304.175271 
L 601.729107 319.017343 
L 605.878963 343.421244 
L 610.028818 342.32187 
L 614.178674 339.036058 
L 618.32853 318.446933 
L 622.478386 337.16436 
L 626.628242 322.419536 
L 630.778098 343.605437 
L 634.927954 333.436946 
L 639.07781 343.413527 
L 643.227666 341.123187 
L 647.377522 341.483052 
L 651.527378 335.674264 
L 655.677233 343.59291 
L 659.827089 337.909356 
L 663.976945 342.963698 
L 668.126801 334.551569 
L 672.276657 335.177176 
L 676.426513 333.92122 
L 680.576369 343.501049 
L 684.726225 334.140076 
L 688.876081 342.83584 
L 693.025937 329.28198 
L 697.175793 324.167218 
L 701.325648 316.148556 
L 705.475504 343.631073 
L 709.62536 330.48303 
L 713.775216 330.196731 
L 717.925072 326.321649 
L 722.074928 324.006266 
L 726.224784 324.579189 
L 730.37464 343.618323 
L 734.524496 310.480793 
L 738.674352 324.752039 
L 742.824207 325.927907 
L 746.974063 339.792213 
L 751.123919 320.23601 
L 755.273775 343.519812 
L 759.423631 341.902778 
L 763.573487 341.619301 
L 767.723343 340.120781 
L 771.873199 341.242583 
L 776.023055 340.389328 
L 780.172911 343.631345 
L 784.322767 341.52404 
L 788.472622 341.28157 
L 792.622478 343.056934 
L 796.772334 339.233633 
L 800.92219 339.761428 
L 805.072046 343.635123 
L 809.221902 342.504433 
L 813.371758 341.180325 
L 817.521614 341.688971 
L 821.67147 342.410736 
L 825.821326 342.911295 
L 829.971182 343.621461 
L 834.121037 342.995883 
L 838.270893 341.94146 
L 842.420749 342.031722 
L 846.570605 342.510681 
L 850.720461 342.13286 
L 854.870317 343.631114 
L 859.020173 341.161351 
L 863.170029 342.686973 
L 867.319885 340.077209 
L 871.469741 342.426358 
L 875.619597 342.423859 
L 879.769452 343.635833 
L 883.919308 340.705329 
L 888.069164 343.454577 
L 896.368876 342.141223 
L 900.518732 342.035568 
L 904.668588 343.627805 
L 908.818444 296.290642 
L 912.9683 316.154052 
L 917.118156 319.761695 
L 921.268012 316.117734 
L 925.417867 311.851414 
L 929.567723 343.475333 
L 933.717579 327.368961 
L 937.867435 342.714257 
L 942.017291 342.517928 
L 946.167147 342.507714 
L 950.317003 342.618512 
L 954.466859 343.630741 
L 958.616715 342.638266 
L 962.766571 342.761267 
L 971.066282 342.370536 
L 975.216138 342.811091 
L 979.365994 343.632976 
L 983.51585 342.695745 
L 995.965418 342.645567 
L 1000.115274 343.519508 
L 1004.26513 343.635307 
L 1008.414986 342.590423 
L 1016.714697 342.79733 
L 1020.864553 341.887465 
L 1025.014409 339.240114 
L 1029.164265 343.54123 
L 1033.314121 323.999285 
L 1037.463977 335.676358 
L 1041.613833 326.354985 
L 1045.763689 331.065954 
L 1049.913545 327.492439 
L 1054.063401 343.596897 
L 1058.213256 325.899786 
L 1062.363112 320.138117 
L 1066.512968 333.839491 
L 1070.662824 329.637091 
L 1074.81268 330.174486 
L 1078.962536 343.596417 
L 1083.112392 321.330804 
L 1087.262248 315.923711 
L 1091.412104 329.856027 
L 1095.56196 338.848119 
L 1099.711816 322.831977 
L 1103.861671 343.431872 
L 1108.011527 312.954184 
L 1112.161383 329.58001 
L 1116.311239 320.914697 
L 1120.461095 326.255448 
L 1124.610951 332.326762 
L 1128.760807 343.633193 
L 1132.910663 342.660123 
L 1137.060519 342.183587 
L 1141.210375 342.540766 
L 1145.360231 342.654711 
L 1149.510086 342.359839 
L 1153.659942 343.634123 
L 1157.809798 342.639392 
L 1166.10951 342.308052 
L 1170.259366 342.754143 
L 1174.409222 342.775544 
L 1178.559078 343.631978 
L 1182.708934 341.723496 
L 1186.85879 341.745197 
L 1191.008646 342.064335 
L 1195.158501 342.677389 
L 1199.308357 341.99699 
L 1203.458213 343.634572 
L 1207.608069 341.996049 
L 1211.757925 342.159064 
L 1215.907781 342.745864 
L 1220.057637 342.926575 
L 1224.207493 342.561136 
L 1228.357349 343.630328 
L 1232.507205 342.084083 
L 1236.657061 342.753205 
L 1240.806916 342.956179 
L 1244.956772 335.345871 
L 1249.106628 333.774275 
L 1253.256484 343.632804 
L 1257.40634 342.525104 
L 1261.556196 341.092948 
L 1265.706052 341.794119 
L 1269.855908 341.901889 
L 1274.005764 342.27189 
L 1278.15562 343.628636 
L 1282.305476 342.71123 
L 1286.455331 343.065039 
L 1290.605187 342.698111 
L 1294.755043 342.772904 
L 1298.904899 343.090629 
L 1303.054755 343.635891 
L 1307.204611 342.650095 
L 1311.354467 343.194855 
L 1315.504323 342.608518 
L 1319.654179 342.652432 
L 1323.804035 342.569138 
L 1327.95389 343.635266 
L 1332.103746 342.631215 
L 1336.253602 342.797613 
L 1340.403458 342.721928 
L 1344.553314 342.964295 
L 1348.70317 342.916035 
L 1352.853026 343.634139 
L 1357.002882 341.106164 
L 1361.152738 342.671983 
L 1365.302594 342.662655 
L 1369.45245 343.534171 
L 1373.602305 342.494777 
L 1377.752161 343.632758 
L 1381.902017 341.998625 
L 1386.051873 341.797316 
L 1390.201729 340.114218 
L 1394.351585 342.707444 
L 1398.501441 339.66086 
L 1402.651297 343.392185 
L 1406.801153 342.081184 
L 1410.951009 334.963551 
L 1415.100865 342.305479 
L 1419.25072 335.738709 
L 1423.400576 333.693336 
L 1427.550432 343.596288 
L 1431.700288 339.117959 
L 1435.850144 341.303094 
L 1440 342.112045 
L 1440 342.112045 
" style="fill:none;stroke:#2ca02c;stroke-linecap:square;stroke-width:1.5;"/>
   </g>
   <g id="patch_3">
    <path d="M 720 360 
L 720 0 
" style="fill:none;stroke:#000000;stroke-linecap:square;stroke-linejoin:miter;stroke-width:0.8;"/>
   </g>
   <g id="patch_4">
    <path d="M 1440 360 
L 1440 0 
" style="fill:none;stroke:#000000;stroke-linecap:square;stroke-linejoin:miter;stroke-width:0.8;"/>
   </g>
   <g id="patch_5">
    <path d="M 0 360 
L 1440 360 
" style="fill:none;stroke:#000000;stroke-linecap:square;stroke-linejoin:miter;stroke-width:0.8;"/>
   </g>
   <g id="patch_6">
    <path d="M 0 0 
L 1440 0 
" style="fill:none;stroke:#000000;stroke-linecap:square;stroke-linejoin:miter;stroke-width:0.8;"/>
   </g>
   <g id="legend_1">
    <g id="patch_7">
     <path d="M 1370.439063 52.034375 
L 1433 52.034375 
Q 1435 52.034375 1435 50.034375 
L 1435 7 
Q 1435 5 1433 5 
L 1370.439063 5 
Q 1368.439063 5 1368.439063 7 
L 1368.439063 50.034375 
Q 1368.439063 52.034375 1370.439063 52.034375 
z
" style="fill:#ffffff;opacity:0.8;stroke:#cccccc;stroke-linejoin:miter;"/>
    </g>
    <g id="line2d_20">
     <path d="M 1372.439063 13.098437 
L 1392.439063 13.098437 
" style="fill:none;stroke:#1f77b4;stroke-linecap:square;stroke-width:1.5;"/>
    </g>
    <g id="line2d_21"/>
    <g id="text_17">
     <!-- PM10 -->
     <defs>
      <path d="M 19.671875 64.796875 
L 19.671875 37.40625 
L 32.078125 37.40625 
Q 38.96875 37.40625 42.71875 40.96875 
Q 46.484375 44.53125 46.484375 51.125 
Q 46.484375 57.671875 42.71875 61.234375 
Q 38.96875 64.796875 32.078125 64.796875 
z
M 9.8125 72.90625 
L 32.078125 72.90625 
Q 44.34375 72.90625 50.609375 67.359375 
Q 56.890625 61.8125 56.890625 51.125 
Q 56.890625 40.328125 50.609375 34.8125 
Q 44.34375 29.296875 32.078125 29.296875 
L 19.671875 29.296875 
L 19.671875 0 
L 9.8125 0 
z
" id="DejaVuSans-80"/>
      <path d="M 9.8125 72.90625 
L 24.515625 72.90625 
L 43.109375 23.296875 
L 61.8125 72.90625 
L 76.515625 72.90625 
L 76.515625 0 
L 66.890625 0 
L 66.890625 64.015625 
L 48.09375 14.015625 
L 38.1875 14.015625 
L 19.390625 64.015625 
L 19.390625 0 
L 9.8125 0 
z
" id="DejaVuSans-77"/>
     </defs>
     <g transform="translate(1400.439063 16.598437)scale(0.1 -0.1)">
      <use xlink:href="#DejaVuSans-80"/>
      <use x="60.302734" xlink:href="#DejaVuSans-77"/>
      <use x="146.582031" xlink:href="#DejaVuSans-49"/>
      <use x="210.205078" xlink:href="#DejaVuSans-48"/>
     </g>
    </g>
    <g id="line2d_22">
     <path d="M 1372.439063 27.776563 
L 1392.439063 27.776563 
" style="fill:none;stroke:#ff7f0e;stroke-linecap:square;stroke-width:1.5;"/>
    </g>
    <g id="line2d_23"/>
    <g id="text_18">
     <!-- PM2.5 -->
     <defs>
      <path d="M 10.6875 12.40625 
L 21 12.40625 
L 21 0 
L 10.6875 0 
z
" id="DejaVuSans-46"/>
     </defs>
     <g transform="translate(1400.439063 31.276563)scale(0.1 -0.1)">
      <use xlink:href="#DejaVuSans-80"/>
      <use x="60.302734" xlink:href="#DejaVuSans-77"/>
      <use x="146.582031" xlink:href="#DejaVuSans-50"/>
      <use x="210.205078" xlink:href="#DejaVuSans-46"/>
      <use x="241.992188" xlink:href="#DejaVuSans-53"/>
     </g>
    </g>
    <g id="line2d_24">
     <path d="M 1372.439063 42.454687 
L 1392.439063 42.454687 
" style="fill:none;stroke:#2ca02c;stroke-linecap:square;stroke-width:1.5;"/>
    </g>
    <g id="line2d_25"/>
    <g id="text_19">
     <!-- PM1 -->
     <g transform="translate(1400.439063 45.954687)scale(0.1 -0.1)">
      <use xlink:href="#DejaVuSans-80"/>
      <use x="60.302734" xlink:href="#DejaVuSans-77"/>
      <use x="146.582031" xlink:href="#DejaVuSans-49"/>
     </g>
    </g>
   </g>
  </g>
 </g>
 <defs>
  <clipPath id="p99149007e5">
   <rect height="360" width="1440" x="0" y="0"/>
  </clipPath>
 </defs>
</svg>
